<svg width="19" height="18" viewBox="0 0 19 18" fill="none" xmlns="http://www.w3.org/2000/svg">
<path d="M6.74861 0.794112C4.97234 1.41032 3.44048 2.5799 2.37804 4.13106C1.31561 5.68222 0.778601 7.5332 0.845894 9.41212C0.913187 11.291 1.58124 13.0989 2.75191 14.57C3.92259 16.0412 5.53419 17.0982 7.35 17.5858C8.82212 17.9656 10.3645 17.9823 11.8444 17.6344C13.1852 17.3332 14.4247 16.6891 15.4417 15.7649C16.5001 14.7738 17.2684 13.5128 17.6639 12.1177C18.0936 10.6006 18.1701 9.00514 17.8875 7.45383H9.62084V10.883H14.4083C14.3127 11.4299 14.1076 11.9519 13.8055 12.4178C13.5034 12.8836 13.1104 13.2837 12.65 13.5941C12.0655 13.981 11.4064 14.2412 10.7153 14.358C10.0222 14.4869 9.31119 14.4869 8.61806 14.358C7.91549 14.2129 7.25089 13.9229 6.66667 13.5066C5.72799 12.8422 5.02316 11.8982 4.65278 10.8094C4.27624 9.7002 4.27624 8.49775 4.65278 7.38856C4.91643 6.61108 5.35227 5.90319 5.92778 5.31772C6.58638 4.63543 7.42019 4.14772 8.33772 3.90811C9.25525 3.66849 10.2211 3.68624 11.1292 3.95939C11.8386 4.17706 12.4874 4.55755 13.0236 5.0705C13.5634 4.53346 14.1023 3.99504 14.6403 3.45522C14.9181 3.16495 15.2208 2.88856 15.4944 2.59133C14.6757 1.82955 13.7148 1.23676 12.6667 0.84689C10.7579 0.15382 8.66941 0.135194 6.74861 0.794112Z" fill="white"/>
<path d="M6.74861 0.794112C8.66926 0.134747 10.7578 0.152882 12.6667 0.845501C13.715 1.23802 14.6755 1.83367 15.4931 2.59828C15.2153 2.8955 14.9222 3.17328 14.6389 3.46217C14.1 4.00013 13.5616 4.53624 13.0236 5.0705C12.4874 4.55755 11.8386 4.17706 11.1292 3.95939C10.2214 3.68528 9.25558 3.66651 8.33781 3.90514C7.42003 4.14377 6.58571 4.63059 5.92639 5.31217C5.35088 5.89763 4.91504 6.60552 4.65139 7.383L1.77222 5.15383C2.80279 3.11017 4.58715 1.54692 6.74861 0.794112Z" fill="#E33629"/>
<path d="M1.00834 7.36217C1.16297 6.59518 1.4199 5.85244 1.77222 5.15383L4.65139 7.38856C4.27485 8.49775 4.27485 9.7002 4.65139 10.8094C3.69213 11.5501 2.73241 12.2946 1.77222 13.0427C0.890489 11.2876 0.621575 9.28787 1.00834 7.36217Z" fill="#F8BD00"/>
<path d="M9.62083 7.45245H17.8875C18.1701 9.00375 18.0936 10.5992 17.6639 12.1163C17.2684 13.5114 16.5001 14.7724 15.4417 15.7636C14.5125 15.0386 13.5792 14.3191 12.65 13.5941C13.1107 13.2834 13.5038 12.8829 13.806 12.4165C14.1081 11.9502 14.313 11.4276 14.4083 10.8802H9.62083C9.61945 9.73856 9.62083 8.5955 9.62083 7.45245Z" fill="#587DBD"/>
<path d="M1.77084 13.0427C2.73102 12.302 3.69074 11.5575 4.65 10.8094C5.02112 11.8986 5.72695 12.8426 6.66667 13.5066C7.25271 13.921 7.91875 14.2086 8.62222 14.3511C9.31536 14.48 10.0263 14.48 10.7194 14.3511C11.4106 14.2342 12.0696 13.974 12.6542 13.5872C13.5833 14.3122 14.5167 15.0316 15.4458 15.7566C14.429 16.6812 13.1895 17.3259 11.8486 17.6274C10.3686 17.9754 8.82628 17.9587 7.35417 17.5788C6.18987 17.268 5.10233 16.7199 4.15972 15.9691C3.16212 15.1769 2.34727 14.1787 1.77084 13.0427Z" fill="#319F43"/>
</svg>
