<?xml version="1.0" encoding="UTF-8"?>
<svg id="Layer_1" data-name="Layer 1" xmlns="http://www.w3.org/2000/svg" viewBox="0 0 116.78 91.34">
  <path d="M55.19,15.1L18.94,41.03c-1.58,1.13-.78,3.63,1.16,3.63H96.1c1.94,0,2.75-2.5,1.16-3.63L61.01,15.1c-1.74-1.24-4.08-1.24-5.82,0Z"/>
  <path d="M57.08,4.65L6.58,40.65c-.76,.54-.94,1.6-.39,2.35l1.11,1.55c.54,.76,1.6,.93,2.36,.39L60.17,8.94c.76-.54,.94-1.6,.39-2.35l-1.11-1.55c-.54-.76-1.6-.93-2.36-.39Z"/>
  <path d="M58.97,4.6l50.76,36.71c.65,.47,.8,1.38,.33,2.03l-1.37,1.93c-.46,.65-1.36,.8-2.01,.34L55.93,8.9c-.65-.47-.8-1.38-.33-2.03l1.37-1.93c.46-.65,1.36-.8,2.01-.34Z"/>
  <path d="M.55,48.95l7.06-.69c.38-.04,.58-.48,.36-.79l-4.13-5.77c-.22-.31-.7-.27-.86,.08L.05,48.24c-.16,.35,.12,.74,.5,.7Z"/>
  <path d="M116.23,49.33l-7.06-.69c-.38-.04-.58-.48-.36-.79l4.13-5.77c.22-.31,.7-.27,.86,.08l2.93,6.46c.16,.35-.12,.74-.5,.7Z"/>
  <path d="M57.4,3.51L52.64,.09c-.16-.11-.37-.12-.54-.03l-3.43,1.97c-.63,.36-.68,1.25-.09,1.68l4.26,3.06"/>
  <path d="M58.79,3.51L63.54,.09c.16-.11,.37-.12,.54-.03l3.43,1.97c.63,.36,.68,1.25,.09,1.68l-4.26,3.06"/>
  <path d="M96.81,41.34H19.39c-.71,0-1.29,.58-1.29,1.29v43.71c0,2.76,2.24,5,5,5H93.1c2.76,0,5-2.24,5-5V42.63c0-.71-.58-1.29-1.29-1.29Zm-17.64,33.33c-1.57,1.56-3.48,2.34-5.75,2.34h-27.74c-2.88,0-5.34-1.01-7.36-3.02-2.02-2.01-3.04-4.46-3.04-7.34,0-2.65,.91-5,2.72-7.05,1.81-2.05,4.06-3.15,6.75-3.31,.52-3.37,2.07-6.15,4.65-8.34,2.58-2.2,5.58-3.29,9-3.29,3.86,0,7.13,1.35,9.83,4.04,2.7,2.7,4.04,5.97,4.04,9.83v2.31h1.42c2.21,.07,4.07,.88,5.57,2.44,1.5,1.55,2.25,3.44,2.25,5.65s-.78,4.18-2.34,5.75Z"/>
</svg>